Coordinates
version=1
nRows=9
nColumns=24
inDegrees=yes

Units are S.I. units (second, meters, Newtons, ...)
Angles are in degrees.

endheader
time	pelvis_tilt	pelvis_list	pelvis_rotation	pelvis_tx	pelvis_ty	pelvis_tz	hip_flexion_r	hip_adduction_r	hip_rotation_r	knee_angle_r	ankle_angle_r	subtalar_angle_r	mtp_angle_r	hip_flexion_l	hip_adduction_l	hip_rotation_l	knee_angle_l	ankle_angle_l	subtalar_angle_l	mtp_angle_l	lumbar_extension	lumbar_bending	lumbar_rotation
      1.00800000	     -1.10447941	     -4.72954560	     -2.74500350	     -0.10566426	      1.01430085	      0.31134751	     -9.56987953	      9.39057279	      4.44398451	     -9.60343067	     14.54754377	     -5.06656700	      4.49761077	     20.25001149	     -4.48868669	     -2.14804042	      6.11874724	      3.60318841	     -3.40851765	     -3.18603177	     -7.60078083	      2.58088540	      8.37655047
      1.01216667	     -1.01909119	     -4.59032847	     -2.78857672	     -0.09997459	      1.01365958	      0.31106151	     -9.76611413	      9.22134641	      4.48779863	    -10.09650184	     14.76582882	     -5.18739563	      4.47636560	     20.25660706	     -4.27527993	     -2.07588720	      5.50769703	      3.54167185	     -3.50924898	     -3.14144045	     -7.66221872	      2.41333834	      8.38051939
      1.01633333	     -0.91584234	     -4.43136627	     -2.80119316	     -0.09424685	      1.01305007	      0.31069755	     -9.92786772	      9.01773844	      4.30635821	    -10.70566491	     15.20391806	     -4.84497652	      4.29887344	     20.24907441	     -4.02908831	     -1.96842172	      4.85763035	      3.39757072	     -3.67846798	     -2.75664473	     -7.72828635	      2.18975802	      8.40332657
      1.02050000	     -0.82215948	     -4.27060390	     -2.82715742	     -0.08851875	      1.01246546	      0.31038988	    -10.09659061	      8.83294945	      4.34196481	    -11.26954818	     15.36823468	     -5.00499573	      4.27998170	     20.26240833	     -3.78900167	     -1.92791488	      4.15098897	      3.25928889	     -3.80441855	     -2.70351254	     -7.79519483	      1.99893570	      8.40218069
      1.02466667	     -0.71368094	     -4.09438712	     -2.81723452	     -0.08274895	      1.01189929	      0.31000567	    -10.22685501	      8.62069649	      4.16118936	    -11.95314764	     15.74702905	     -4.73077199	      4.10154229	     20.24712121	     -3.51948964	     -1.75927637	      3.45494126	      2.98656281	     -4.13718811	     -2.14968572	     -7.85204294	      1.74652720	      8.39780530
      1.02883333	     -0.62355881	     -3.92700961	     -2.83330172	     -0.07697682	      1.01136967	      0.30969545	    -10.35048315	      8.43792265	      4.20102098	    -12.60515813	     15.89922239	     -4.88124851	      3.18310206	     20.25904498	     -3.27317831	     -1.69328893	      2.72491459	      2.59965429	     -4.44958235	      1.11228908	     -7.89573749	      1.52903133	      8.37488130
      1.03300000	     -0.50800541	     -3.72493170	     -2.82601296	     -0.07116914	      1.01088521	      0.30933726	    -10.47116752	      8.21444332	      4.15191688	    -13.31601621	     16.06472682	     -4.91245766	      3.19470833	     20.25165930	     -2.98293448	     -1.64367006	      1.95610778	      2.31701939	     -4.63477242	      1.13676084	     -7.96616125	      1.25137385	      8.36820240
      1.03716667	     -0.40369320	     -3.52673174	     -2.81069981	     -0.06535700	      1.01042108	      0.30895538	    -10.54217271	      7.99638994	      4.05911713	    -14.10144740	     16.21475978	     -4.90496283	      3.21794113	     20.24770619	     -2.69417969	     -1.52602684	      1.19604708	      1.95058987	     -4.96362007	      1.18915632	     -8.02141109	      0.98275668	      8.34483154
      1.04133333	     -0.29620628	     -3.34699940	     -2.79129151	     -0.05956320	      1.00999302	      0.30853206	    -10.57438609	      7.79414864	      3.91595222	    -14.96811959	     16.33065504	     -4.86703629	      3.26778409	     20.22918372	     -2.42087995	     -1.32782599	      0.45484512	      1.50322218	     -5.45891344	      1.29806092	     -8.08294100	      0.77371137	      8.31242903
